<svg width="429" height="105" viewBox="0 0 429 105" fill="none" xmlns="http://www.w3.org/2000/svg">
<path d="M196 5.57568V27.8791L211.611 39.0294L226.294 27.8791V5.57715L212.262 16.2632L204.177 10.7799L204.085 16.0767L212.169 21.2809L222.391 13.7529V25.0912L211.705 33.361L201.297 26.021L201.112 8.27108L196 5.57568Z" fill="white"/>
<path d="M196.448 31.6367L211.222 41.9996L228.054 29.3629V3.36373L232.8 0V31.2724L210.595 48L196 37.3653V31.7278L196.448 31.6367Z" fill="white"/>
<path d="M1.504 96V92.928H4.512V76.672H1.504V73.6H10.464C13.4507 73.6 15.7333 74.3573 17.312 75.872C18.912 77.3867 19.712 79.6693 19.712 82.72V86.912C19.712 89.9627 18.912 92.2453 17.312 93.76C15.7333 95.2533 13.4507 96 10.464 96H1.504ZM8 92.864H10.496C12.4373 92.864 13.8773 92.3733 14.816 91.392C15.7547 90.4107 16.224 88.9493 16.224 87.008V82.592C16.224 80.6293 15.7547 79.168 14.816 78.208C13.8773 77.248 12.4373 76.768 10.496 76.768H8V92.864ZM30.9453 96.448C29.3453 96.448 27.9479 96.1173 26.7533 95.456C25.5586 94.7733 24.6199 93.824 23.9373 92.608C23.2759 91.3707 22.9453 89.9413 22.9453 88.32V87.936C22.9453 86.2933 23.2759 84.864 23.9373 83.648C24.5986 82.4107 25.5159 81.4613 26.6893 80.8C27.8839 80.1173 29.2599 79.776 30.8173 79.776C32.3319 79.776 33.6546 80.1173 34.7853 80.8C35.9373 81.4613 36.8333 82.3893 37.4733 83.584C38.1133 84.7787 38.4333 86.176 38.4333 87.776V89.024H26.3053C26.3479 90.4107 26.8066 91.52 27.6813 92.352C28.5773 93.1627 29.6866 93.568 31.0093 93.568C32.2466 93.568 33.1746 93.2907 33.7933 92.736C34.4333 92.1813 34.9239 91.5413 35.2653 90.816L37.9853 92.224C37.6866 92.8213 37.2493 93.4507 36.6733 94.112C36.1186 94.7733 35.3826 95.328 34.4653 95.776C33.5479 96.224 32.3746 96.448 30.9453 96.448ZM26.3373 86.496H35.0733C34.9879 85.3013 34.5613 84.3733 33.7933 83.712C33.0253 83.0293 32.0226 82.688 30.7853 82.688C29.5479 82.688 28.5346 83.0293 27.7453 83.712C26.9773 84.3733 26.5079 85.3013 26.3373 86.496ZM42.4008 102.4V80.224H45.6328V82.496H46.1448C46.5501 81.792 47.1581 81.1627 47.9688 80.608C48.8008 80.0533 49.9848 79.776 51.5208 79.776C52.8434 79.776 54.0488 80.096 55.1368 80.736C56.2461 81.376 57.1314 82.304 57.7928 83.52C58.4754 84.7147 58.8168 86.1653 58.8168 87.872V88.352C58.8168 90.0587 58.4861 91.52 57.8248 92.736C57.1634 93.9307 56.2781 94.848 55.1688 95.488C54.0594 96.128 52.8434 96.448 51.5208 96.448C50.4968 96.448 49.6328 96.32 48.9288 96.064C48.2248 95.808 47.6594 95.488 47.2328 95.104C46.8061 94.6987 46.4648 94.2827 46.2088 93.856H45.6968V102.4H42.4008ZM50.5608 93.568C52.0114 93.568 53.1954 93.1093 54.1128 92.192C55.0301 91.2747 55.4888 89.9627 55.4888 88.256V87.968C55.4888 86.2827 55.0194 84.9813 54.0808 84.064C53.1634 83.1467 51.9901 82.688 50.5608 82.688C49.1528 82.688 47.9794 83.1467 47.0408 84.064C46.1234 84.9813 45.6648 86.2827 45.6648 87.968V88.256C45.6648 89.9627 46.1234 91.2747 47.0408 92.192C47.9794 93.1093 49.1528 93.568 50.5608 93.568ZM67.7968 96.448C66.6661 96.448 65.6528 96.256 64.7568 95.872C63.8821 95.488 63.1781 94.9227 62.6448 94.176C62.1328 93.4293 61.8768 92.5227 61.8768 91.456C61.8768 90.368 62.1328 89.472 62.6448 88.768C63.1781 88.0427 63.8928 87.4987 64.7888 87.136C65.7061 86.7733 66.7408 86.592 67.8928 86.592H72.6928V85.568C72.6928 84.6507 72.4154 83.9147 71.8608 83.36C71.3061 82.8053 70.4528 82.528 69.3008 82.528C68.1701 82.528 67.3061 82.7947 66.7088 83.328C66.1114 83.8613 65.7168 84.5547 65.5248 85.408L62.4528 84.416C62.7088 83.5627 63.1141 82.7947 63.6688 82.112C64.2448 81.408 65.0021 80.8427 65.9408 80.416C66.8794 79.9893 68.0101 79.776 69.3328 79.776C71.3808 79.776 72.9914 80.2987 74.1648 81.344C75.3381 82.3893 75.9248 83.872 75.9248 85.792V92.288C75.9248 92.928 76.2234 93.248 76.8208 93.248H78.1648V96H75.7008C74.9541 96 74.3461 95.808 73.8768 95.424C73.4074 95.04 73.1728 94.5173 73.1728 93.856V93.76H72.6928C72.5221 94.08 72.2661 94.4533 71.9248 94.88C71.5834 95.3067 71.0821 95.68 70.4208 96C69.7594 96.2987 68.8848 96.448 67.7968 96.448ZM68.2768 93.728C69.5994 93.728 70.6661 93.3547 71.4768 92.608C72.2874 91.84 72.6928 90.7947 72.6928 89.472V89.152H68.0848C67.2101 89.152 66.5061 89.344 65.9728 89.728C65.4394 90.0907 65.1727 90.6347 65.1727 91.36C65.1727 92.0853 65.4501 92.6613 66.0048 93.088C66.5594 93.5147 67.3168 93.728 68.2768 93.728ZM81.3695 96V80.224H84.6015V82.08H85.1135C85.3695 81.4187 85.7748 80.9387 86.3295 80.64C86.9055 80.32 87.6095 80.16 88.4415 80.16H90.3295V83.136H88.3135C87.2468 83.136 86.3722 83.4347 85.6895 84.032C85.0068 84.608 84.6655 85.504 84.6655 86.72V96H81.3695ZM99.6645 96C98.7045 96 97.9365 95.712 97.3605 95.136C96.8058 94.56 96.5285 93.792 96.5285 92.832V83.008H92.1765V80.224H96.5285V75.008H99.8245V80.224H104.529V83.008H99.8245V92.256C99.8245 92.896 100.123 93.216 100.72 93.216H104.017V96H99.6645ZM108.401 96V80.224H111.633V82.08H112.145C112.443 81.5253 112.923 81.0347 113.585 80.608C114.246 80.1813 115.142 79.968 116.273 79.968C117.446 79.968 118.385 80.2133 119.089 80.704C119.814 81.1733 120.358 81.7813 120.721 82.528H121.233C121.595 81.8027 122.118 81.1947 122.801 80.704C123.505 80.2133 124.497 79.968 125.777 79.968C126.801 79.968 127.707 80.1813 128.497 80.608C129.286 81.0133 129.915 81.632 130.385 82.464C130.854 83.2747 131.089 84.288 131.089 85.504V96H127.793V85.76C127.793 84.8 127.526 84.064 126.993 83.552C126.481 83.0187 125.745 82.752 124.785 82.752C123.761 82.752 122.939 83.0827 122.321 83.744C121.702 84.4053 121.393 85.3547 121.393 86.592V96H118.097V85.76C118.097 84.8 117.83 84.064 117.297 83.552C116.785 83.0187 116.049 82.752 115.089 82.752C114.065 82.752 113.243 83.0827 112.625 83.744C112.006 84.4053 111.697 85.3547 111.697 86.592V96H108.401ZM143.07 96.448C141.47 96.448 140.073 96.1173 138.878 95.456C137.684 94.7733 136.745 93.824 136.062 92.608C135.401 91.3707 135.07 89.9413 135.07 88.32V87.936C135.07 86.2933 135.401 84.864 136.062 83.648C136.724 82.4107 137.641 81.4613 138.814 80.8C140.009 80.1173 141.385 79.776 142.942 79.776C144.457 79.776 145.78 80.1173 146.91 80.8C148.062 81.4613 148.958 82.3893 149.598 83.584C150.238 84.7787 150.558 86.176 150.558 87.776V89.024H138.43C138.473 90.4107 138.932 91.52 139.806 92.352C140.702 93.1627 141.812 93.568 143.134 93.568C144.372 93.568 145.3 93.2907 145.918 92.736C146.558 92.1813 147.049 91.5413 147.39 90.816L150.11 92.224C149.812 92.8213 149.374 93.4507 148.798 94.112C148.244 94.7733 147.508 95.328 146.59 95.776C145.673 96.224 144.5 96.448 143.07 96.448ZM138.462 86.496H147.198C147.113 85.3013 146.686 84.3733 145.918 83.712C145.15 83.0293 144.148 82.688 142.91 82.688C141.673 82.688 140.66 83.0293 139.87 83.712C139.102 84.3733 138.633 85.3013 138.462 86.496ZM154.526 96V80.224H157.758V82.592H158.27C158.568 81.952 159.102 81.3547 159.87 80.8C160.638 80.2453 161.779 79.968 163.294 79.968C164.488 79.968 165.544 80.2347 166.462 80.768C167.4 81.3013 168.136 82.0587 168.67 83.04C169.203 84 169.47 85.1627 169.47 86.528V96H166.174V86.784C166.174 85.4187 165.832 84.416 165.15 83.776C164.467 83.1147 163.528 82.784 162.334 82.784C160.968 82.784 159.87 83.232 159.038 84.128C158.227 85.024 157.822 86.3253 157.822 88.032V96H154.526ZM179.696 96C178.736 96 177.968 95.712 177.392 95.136C176.837 94.56 176.56 93.792 176.56 92.832V83.008H172.208V80.224H176.56V75.008H179.856V80.224H184.56V83.008H179.856V92.256C179.856 92.896 180.154 93.216 180.752 93.216H184.048V96H179.696ZM203.98 96.448C202.402 96.448 200.994 96.128 199.756 95.488C198.54 94.8267 197.58 93.888 196.876 92.672C196.172 91.456 195.82 90.016 195.82 88.352V87.872C195.82 86.208 196.172 84.7787 196.876 83.584C197.58 82.368 198.54 81.4293 199.756 80.768C200.994 80.1067 202.402 79.776 203.98 79.776C205.559 79.776 206.967 80.1067 208.204 80.768C209.442 81.4293 210.412 82.368 211.116 83.584C211.82 84.7787 212.172 86.208 212.172 87.872V88.352C212.172 90.016 211.82 91.456 211.116 92.672C210.412 93.888 209.442 94.8267 208.204 95.488C206.967 96.128 205.559 96.448 203.98 96.448ZM203.98 93.504C205.431 93.504 206.604 93.0453 207.5 92.128C208.418 91.1893 208.876 89.8987 208.876 88.256V87.968C208.876 86.3253 208.428 85.0453 207.532 84.128C206.636 83.1893 205.452 82.72 203.98 82.72C202.551 82.72 201.378 83.1893 200.46 84.128C199.564 85.0453 199.116 86.3253 199.116 87.968V88.256C199.116 89.8987 199.564 91.1893 200.46 92.128C201.378 93.0453 202.551 93.504 203.98 93.504ZM218.53 96V83.008H214.114V80.224H218.53V76.768C218.53 75.808 218.818 75.04 219.394 74.464C219.97 73.888 220.738 73.6 221.698 73.6H225.762V76.384H222.754C222.135 76.384 221.826 76.704 221.826 77.344V80.224H226.37V83.008H221.826V96H218.53ZM241.975 96L235.735 73.6H239.319L244.759 93.824H245.175L250.583 73.6H254.167L247.959 96H241.975ZM257.307 96V80.224H260.603V96H257.307ZM258.971 78.08C258.331 78.08 257.787 77.8773 257.339 77.472C256.912 77.0453 256.699 76.5013 256.699 75.84C256.699 75.1787 256.912 74.6453 257.339 74.24C257.787 73.8133 258.331 73.6 258.971 73.6C259.632 73.6 260.176 73.8133 260.603 74.24C261.03 74.6453 261.243 75.1787 261.243 75.84C261.243 76.5013 261.03 77.0453 260.603 77.472C260.176 77.8773 259.632 78.08 258.971 78.08ZM271.959 96.448C269.953 96.448 268.289 96 266.967 95.104C265.644 94.208 264.833 92.8533 264.535 91.04L267.607 90.304C267.777 91.1787 268.065 91.872 268.471 92.384C268.876 92.896 269.377 93.2587 269.975 93.472C270.593 93.6853 271.255 93.792 271.959 93.792C273.004 93.792 273.804 93.5893 274.359 93.184C274.935 92.7787 275.223 92.256 275.223 91.616C275.223 90.976 274.956 90.5067 274.423 90.208C273.889 89.9093 273.1 89.664 272.055 89.472L270.967 89.28C269.9 89.088 268.929 88.8107 268.055 88.448C267.18 88.0853 266.487 87.584 265.975 86.944C265.463 86.304 265.207 85.4827 265.207 84.48C265.207 82.9867 265.761 81.8347 266.871 81.024C267.98 80.192 269.452 79.776 271.286 79.776C273.057 79.776 274.508 80.1813 275.639 80.992C276.791 81.7813 277.537 82.8587 277.879 84.224L274.807 85.088C274.615 84.128 274.209 83.456 273.591 83.072C272.972 82.6667 272.204 82.464 271.286 82.464C270.391 82.464 269.687 82.6347 269.175 82.976C268.663 83.296 268.407 83.7547 268.407 84.352C268.407 84.992 268.652 85.4613 269.143 85.76C269.655 86.0587 270.337 86.2827 271.191 86.432L272.311 86.624C273.441 86.816 274.476 87.0827 275.415 87.424C276.353 87.7653 277.089 88.256 277.623 88.896C278.177 89.536 278.455 90.3893 278.455 91.456C278.455 93.0347 277.868 94.2613 276.695 95.136C275.521 96.0107 273.943 96.448 271.959 96.448ZM288.355 96.288C287.16 96.288 286.094 96.0213 285.155 95.488C284.216 94.9547 283.48 94.1973 282.947 93.216C282.414 92.2347 282.147 91.0613 282.147 89.696V80.224H285.443V89.472C285.443 90.8373 285.784 91.8507 286.467 92.512C287.15 93.152 288.099 93.472 289.315 93.472C290.659 93.472 291.736 93.024 292.547 92.128C293.379 91.2107 293.795 89.8987 293.795 88.192V80.224H297.091V96H293.859V93.632H293.347C293.048 94.272 292.515 94.88 291.747 95.456C290.979 96.0107 289.848 96.288 288.355 96.288ZM306.859 96.448C305.729 96.448 304.715 96.256 303.819 95.872C302.945 95.488 302.241 94.9227 301.707 94.176C301.195 93.4293 300.939 92.5227 300.939 91.456C300.939 90.368 301.195 89.472 301.707 88.768C302.241 88.0427 302.955 87.4987 303.851 87.136C304.769 86.7733 305.803 86.592 306.955 86.592H311.755V85.568C311.755 84.6507 311.478 83.9147 310.923 83.36C310.369 82.8053 309.515 82.528 308.363 82.528C307.233 82.528 306.369 82.7947 305.771 83.328C305.174 83.8613 304.779 84.5547 304.587 85.408L301.515 84.416C301.771 83.5627 302.177 82.7947 302.731 82.112C303.307 81.408 304.065 80.8427 305.003 80.416C305.942 79.9893 307.073 79.776 308.395 79.776C310.443 79.776 312.054 80.2987 313.227 81.344C314.401 82.3893 314.987 83.872 314.987 85.792V92.288C314.987 92.928 315.286 93.248 315.883 93.248H317.227V96H314.763C314.017 96 313.409 95.808 312.939 95.424C312.47 95.04 312.235 94.5173 312.235 93.856V93.76H311.755C311.585 94.08 311.329 94.4533 310.987 94.88C310.646 95.3067 310.145 95.68 309.483 96C308.822 96.2987 307.947 96.448 306.859 96.448ZM307.339 93.728C308.662 93.728 309.729 93.3547 310.539 92.608C311.35 91.84 311.755 90.7947 311.755 89.472V89.152H307.147C306.273 89.152 305.569 89.344 305.035 89.728C304.502 90.0907 304.235 90.6347 304.235 91.36C304.235 92.0853 304.513 92.6613 305.067 93.088C305.622 93.5147 306.379 93.728 307.339 93.728ZM320.432 96V73.6H323.728V96H320.432ZM336.68 96V73.6H343.176L348.072 93.696H348.584L353.48 73.6H359.976V96H356.616V76.032H356.104L351.24 96H345.416L340.552 76.032H340.04V96H336.68ZM371.977 96.448C370.377 96.448 368.979 96.1173 367.785 95.456C366.59 94.7733 365.651 93.824 364.969 92.608C364.307 91.3707 363.977 89.9413 363.977 88.32V87.936C363.977 86.2933 364.307 84.864 364.969 83.648C365.63 82.4107 366.547 81.4613 367.721 80.8C368.915 80.1173 370.291 79.776 371.849 79.776C373.363 79.776 374.686 80.1173 375.817 80.8C376.969 81.4613 377.865 82.3893 378.505 83.584C379.145 84.7787 379.465 86.176 379.465 87.776V89.024H367.337C367.379 90.4107 367.838 91.52 368.713 92.352C369.609 93.1627 370.718 93.568 372.041 93.568C373.278 93.568 374.206 93.2907 374.825 92.736C375.465 92.1813 375.955 91.5413 376.297 90.816L379.017 92.224C378.718 92.8213 378.281 93.4507 377.705 94.112C377.15 94.7733 376.414 95.328 375.497 95.776C374.579 96.224 373.406 96.448 371.977 96.448ZM367.369 86.496H376.105C376.019 85.3013 375.593 84.3733 374.825 83.712C374.057 83.0293 373.054 82.688 371.817 82.688C370.579 82.688 369.566 83.0293 368.777 83.712C368.009 84.3733 367.539 85.3013 367.369 86.496ZM389.96 96.448C388.659 96.448 387.453 96.128 386.344 95.488C385.235 94.848 384.339 93.9307 383.656 92.736C382.995 91.52 382.664 90.0587 382.664 88.352V87.872C382.664 86.1867 382.995 84.736 383.656 83.52C384.317 82.304 385.203 81.376 386.312 80.736C387.421 80.096 388.637 79.776 389.96 79.776C390.984 79.776 391.837 79.904 392.52 80.16C393.224 80.416 393.8 80.7467 394.248 81.152C394.696 81.536 395.037 81.9413 395.272 82.368H395.784V73.6H399.08V96H395.848V93.76H395.336C394.931 94.4427 394.312 95.0613 393.48 95.616C392.669 96.1707 391.496 96.448 389.96 96.448ZM390.888 93.568C392.317 93.568 393.491 93.1093 394.408 92.192C395.347 91.2747 395.816 89.9627 395.816 88.256V87.968C395.816 86.2827 395.357 84.9813 394.44 84.064C393.523 83.1467 392.339 82.688 390.888 82.688C389.48 82.688 388.307 83.1467 387.368 84.064C386.451 84.9813 385.992 86.2827 385.992 87.968V88.256C385.992 89.9627 386.451 91.2747 387.368 92.192C388.307 93.1093 389.48 93.568 390.888 93.568ZM403.932 96V80.224H407.228V96H403.932ZM405.596 78.08C404.956 78.08 404.412 77.8773 403.964 77.472C403.537 77.0453 403.324 76.5013 403.324 75.84C403.324 75.1787 403.537 74.6453 403.964 74.24C404.412 73.8133 404.956 73.6 405.596 73.6C406.257 73.6 406.801 73.8133 407.228 74.24C407.655 74.6453 407.868 75.1787 407.868 75.84C407.868 76.5013 407.655 77.0453 407.228 77.472C406.801 77.8773 406.257 78.08 405.596 78.08ZM417.016 96.448C415.885 96.448 414.872 96.256 413.976 95.872C413.101 95.488 412.397 94.9227 411.864 94.176C411.352 93.4293 411.096 92.5227 411.096 91.456C411.096 90.368 411.352 89.472 411.864 88.768C412.397 88.0427 413.112 87.4987 414.008 87.136C414.925 86.7733 415.96 86.592 417.112 86.592H421.912V85.568C421.912 84.6507 421.634 83.9147 421.08 83.36C420.525 82.8053 419.672 82.528 418.52 82.528C417.389 82.528 416.525 82.7947 415.928 83.328C415.33 83.8613 414.936 84.5547 414.744 85.408L411.672 84.416C411.928 83.5627 412.333 82.7947 412.888 82.112C413.464 81.408 414.221 80.8427 415.16 80.416C416.098 79.9893 417.229 79.776 418.552 79.776C420.6 79.776 422.21 80.2987 423.384 81.344C424.557 82.3893 425.144 83.872 425.144 85.792V92.288C425.144 92.928 425.442 93.248 426.04 93.248H427.384V96H424.92C424.173 96 423.565 95.808 423.096 95.424C422.626 95.04 422.392 94.5173 422.392 93.856V93.76H421.912C421.741 94.08 421.485 94.4533 421.144 94.88C420.802 95.3067 420.301 95.68 419.64 96C418.978 96.2987 418.104 96.448 417.016 96.448ZM417.496 93.728C418.818 93.728 419.885 93.3547 420.696 92.608C421.506 91.84 421.912 90.7947 421.912 89.472V89.152H417.304C416.429 89.152 415.725 89.344 415.192 89.728C414.658 90.0907 414.391 90.6347 414.391 91.36C414.391 92.0853 414.669 92.6613 415.224 93.088C415.778 93.5147 416.536 93.728 417.496 93.728Z" fill="white"/>
</svg>
